<svg width="56" height="57" viewBox="0 0 56 57" fill="none" xmlns="http://www.w3.org/2000/svg">
<path d="M19.9529 10.885V1.45459H54.7729V22.4917H46.4306L37.3629 31.5594V22.4917H31.5596" stroke="#B5B7B6" stroke-width="2.17625"/>
<circle cx="31.1966" cy="13.4241" r="1.08813" fill="#B5B7B6"/>
<circle cx="37" cy="13.4241" r="1.08813" fill="#B5B7B6"/>
<circle cx="42.8033" cy="13.4241" r="1.08813" fill="#B5B7B6"/>
<path d="M27.5696 27.9322C27.5696 33.648 23.4083 38.088 18.5019 38.088C13.5955 38.088 9.4342 33.648 9.4342 27.9322C9.4342 22.2164 13.5955 17.7764 18.5019 17.7764C23.4083 17.7764 27.5696 22.2164 27.5696 27.9322Z" stroke="#B5B7B6" stroke-width="2.17625"/>
<path d="M8.70862 27.5696C10.764 28.295 15.8903 28.5127 19.9526 23.5798C21.1133 28.2225 25.9977 28.1741 28.2949 27.5696" stroke="#B5B7B6" stroke-width="2.17625"/>
<path d="M14.1494 37.3626V42.4405C9.91779 43.4078 1.45459 46.1402 1.45459 49.332C1.45459 52.5239 1.45459 54.5308 1.45459 55.1354H36.2746V50.3367C36.2746 49.6793 36.1074 49.0256 35.6896 48.5181C34.0574 46.5355 30.1317 43.4485 23.5798 42.4405C23.5798 38.6684 23.5798 36.7581 23.5798 36.6372" stroke="#B5B7B6" stroke-width="2.17625"/>
</svg>
