<svg width="57" height="57" viewBox="0 0 57 57" fill="none" xmlns="http://www.w3.org/2000/svg">
<path d="M20.2925 10.885V1.45459H55.4607V22.4917H47.035L37.8766 31.5594V22.4917H32.0152" stroke="white" stroke-width="2.17625"/>
<ellipse cx="31.6488" cy="13.4241" rx="1.09901" ry="1.08813" fill="white"/>
<ellipse cx="37.5101" cy="13.4241" rx="1.09901" ry="1.08813" fill="white"/>
<ellipse cx="43.3715" cy="13.4241" rx="1.09901" ry="1.08813" fill="white"/>
<path d="M27.9965 27.9324C27.9965 33.6376 23.7994 38.0883 18.8272 38.0883C13.8551 38.0883 9.65795 33.6376 9.65795 27.9324C9.65795 22.2273 13.8551 17.7766 18.8272 17.7766C23.7994 17.7766 27.9965 22.2273 27.9965 27.9324Z" stroke="white" stroke-width="2.17625"/>
<path d="M8.93604 27.5699C11.0119 28.2953 16.1895 28.5129 20.2924 23.5801C21.4647 28.2227 26.398 28.1744 28.7182 27.5699" stroke="white" stroke-width="2.17625"/>
<path d="M14.4311 37.3626V42.4405C10.1572 43.4078 1.60938 46.1402 1.60938 49.332C1.60938 52.5239 1.60938 54.5308 1.60938 55.1354H36.7776V50.3453C36.7776 49.6824 36.6076 49.0236 36.1835 48.5142C34.533 46.5315 30.5689 43.4479 23.9559 42.4405C23.9559 38.6684 23.9559 36.7581 23.9559 36.6372" stroke="white" stroke-width="2.17625"/>
</svg>
