<svg width="56" height="57" viewBox="0 0 56 57" fill="none" xmlns="http://www.w3.org/2000/svg">
<path d="M19.9529 10.885V1.45459H54.7729V22.4917H46.4306L37.3629 31.5594V22.4917H31.5596" stroke="#23B6B0" stroke-width="2.17625"/>
<circle cx="31.1966" cy="13.4239" r="1.08813" fill="#23B6B0"/>
<circle cx="37" cy="13.4239" r="1.08813" fill="#23B6B0"/>
<circle cx="42.8033" cy="13.4239" r="1.08813" fill="#23B6B0"/>
<path d="M27.5696 27.9323C27.5696 33.6481 23.4083 38.0882 18.5019 38.0882C13.5955 38.0882 9.4342 33.6481 9.4342 27.9323C9.4342 22.2166 13.5955 17.7765 18.5019 17.7765C23.4083 17.7765 27.5696 22.2166 27.5696 27.9323Z" stroke="#23B6B0" stroke-width="2.17625"/>
<path d="M8.70862 27.5696C10.764 28.295 15.8903 28.5127 19.9526 23.5798C21.1133 28.2225 25.9977 28.1741 28.2949 27.5696" stroke="#23B6B0" stroke-width="2.17625"/>
<path d="M14.1494 37.3627V42.4407C9.91779 43.4079 1.45459 46.1403 1.45459 49.3321C1.45459 52.524 1.45459 54.531 1.45459 55.1355H36.2746V50.3368C36.2746 49.6794 36.1074 49.0258 35.6896 48.5182C34.0574 46.5356 30.1317 43.4486 23.5798 42.4407C23.5798 38.6685 23.5798 36.7582 23.5798 36.6373" stroke="#23B6B0" stroke-width="2.17625"/>
</svg>
